<svg xmlns="http://www.w3.org/2000/svg" viewBox="0 0 1280 720" role="img" aria-label="Hand-drawn arrows: scattered on the left, coming into alignment on the right">
  <rect width="1280" height="720" fill="#F5EFE2"/>
  <!-- scattered arrows, left -->
  <g stroke="#2C3F76" stroke-width="10" stroke-linecap="round" fill="none" opacity=".5">
    <path d="M150 190 C 200 170, 240 210, 290 186"/><path d="M268 170 L 292 185 L 264 202"/>
    <path d="M130 360 C 180 400, 230 350, 280 384"/><path d="M262 402 L 282 383 L 252 370"/>
    <path d="M170 540 C 210 500, 260 560, 310 522"/><path d="M292 508 L 312 521 L 288 544"/>
  </g>
  <!-- transition squiggle -->
  <path d="M380 372 C 440 320, 470 420, 530 368 S 610 330, 650 360"
        fill="none" stroke="#F0A04B" stroke-width="12" stroke-linecap="round"/>
  <!-- aligned arrows, right -->
  <g stroke="#F0A04B" stroke-width="13" stroke-linecap="round" fill="none">
    <path d="M720 260 C 830 254, 950 258, 1090 256"/>
    <path d="M720 366 C 830 360, 950 364, 1120 362"/>
    <path d="M720 472 C 830 466, 950 470, 1090 468"/>
  </g>
  <g fill="#F0A04B">
    <path d="M1082 232 L 1132 256 L 1082 282 Z"/>
    <path d="M1112 338 L 1162 362 L 1112 388 Z"/>
    <path d="M1082 444 L 1132 468 L 1082 494 Z"/>
  </g>
  <!-- sparkle -->
  <path d="M1000 140 l5 22 22 5 -22 5 -5 22 -5 -22 -22 -5 22 -5 Z" fill="#F0A04B" opacity=".8"/>
</svg>
