<svg xmlns="http://www.w3.org/2000/svg" viewBox="0 0 1280 720" role="img" aria-label="Hand-drawn noisy speech bubbles above, and below them one quiet clear line leading to a star">
  <rect width="1280" height="720" fill="#F1F1F0"/>
  <!-- noisy overlapping speech bubbles -->
  <g fill="none" stroke="#3A4374" stroke-width="9" stroke-linejoin="round" opacity=".4">
    <path d="M180 120 h 240 c 20 0 30 12 30 28 v 90 c 0 16 -10 28 -30 28 h -150 l -40 44 4 -44 h -54 c -20 0 -30 -12 -30 -28 v -90 c 0 -16 10 -28 30 -28 Z"/>
    <path d="M520 90 h 210 c 18 0 28 10 28 26 v 80 c 0 16 -10 26 -28 26 h -120 l -36 40 4 -40 h -58 c -18 0 -28 -10 -28 -26 v -80 c 0 -16 10 -26 28 -26 Z" opacity=".8"/>
    <path d="M840 130 h 230 c 20 0 30 12 30 28 v 86 c 0 16 -10 28 -30 28 h -140 l -38 42 4 -42 h -56 c -20 0 -30 -12 -30 -28 v -86 c 0 -16 10 -28 30 -28 Z"/>
  </g>
  <!-- scribble inside bubbles = noise -->
  <g fill="none" stroke="#3A4374" stroke-width="8" stroke-linecap="round" opacity=".35">
    <path d="M240 170 h 160 M240 208 h 120"/>
    <path d="M570 140 h 130 M570 176 h 90"/>
    <path d="M900 180 h 150 M900 216 h 110"/>
  </g>
  <!-- the quiet clear line to a star -->
  <path d="M170 543 C 280 531, 390 549, 510 537 S 730 525, 850 537 S 970 537, 1010 531" fill="none" stroke="#F09B00" stroke-width="13" stroke-linecap="round"/>
  <path d="M1064 496 l 10 40 40 10 -40 10 -10 40 -10 -40 -40 -10 40 -10 Z" fill="#F5A81C" stroke="#3A4374" stroke-width="8" stroke-linejoin="round"/>
</svg>
