<svg xmlns="http://www.w3.org/2000/svg" xmlns:xlink="http://www.w3.org/1999/xlink" id="Layer_1" x="0px" y="0px" viewBox="0 0 1024 1024" style="enable-background:new 0 0 1024 1024;" xml:space="preserve"><path d="M376.1,260.8c-4.6,1.3-9.3,2.3-14.2,2.9c-4.9,0.7-9.3,2-13.2,3.9c-8.5,3.9-16.8,8.1-24.9,12.7c-8.1,4.6-16.1,9.4-23.9,14.7  c-15.6,9.1-30.1,19.2-43.5,30.3c-13.4,11.1-26.6,22.5-39.6,34.2c-3.9,3.3-7.5,6.7-10.8,10.3s-6.8,7-10.8,10.3  c-1.3,2-2.9,3.4-4.9,4.4c-2,1-4.2,1.5-6.8,1.5c-2,0.7-4.1,0.8-6.4,0.5c-2.3-0.3-4.4-0.8-6.4-1.5c-5.2-2.6-9.8-5.4-13.7-8.3  c-3.9-2.9-5.5-7-4.9-12.2c0-2.6,0.3-5.1,1-7.3c0.7-2.3,1.3-4.4,2-6.4c7.2-20.9,14.5-41.5,22-62.1c7.5-20.5,16.5-40.6,26.9-60.1  c9.1-18.9,18.6-37.6,28.3-56.2c9.8-18.6,19.9-37,30.3-55.2c8.5-15.6,17.6-31.1,27.4-46.4s19.2-30.5,28.3-45.5  c4.6-6.5,9.1-10.8,13.7-12.7s9.8-1.3,15.6,2c1.3,0.7,2.4,1.3,3.4,2c1,0.7,2.1,1.6,3.4,2.9l3.9,7.8l1,3.9V36  c-0.7,1.3-1.1,2.6-1.5,3.9s-1.1,2.6-2.4,3.9c-5.2,8.5-10.8,17.1-16.6,25.9c-5.9,8.8-11.4,17.4-16.6,25.9c-3.9,6.5-7.7,13-11.2,19.5  c-3.6,6.5-7.3,13-11.2,19.5c-8.5,16.3-17.1,32.7-25.9,49.4c-8.8,16.6-17.4,33.4-25.9,50.3c-3.3,6.5-6.5,13.5-9.8,21  c-3.3,7.5-6.2,14.8-8.8,22c-1.3,3.3-2.1,6.5-2.4,9.8c-0.3,3.3-1.1,6.8-2.4,10.8c3.3-2,6-3.7,8.3-5.4c2.3-1.6,4.7-3.4,7.3-5.4  c15-11.7,31.1-22.6,48.4-32.7c17.3-10.1,35-18.7,53.3-25.9c6.5-2,13-3.7,19.5-5.4s13.4-1.5,20.5,0.5c12.4,3.3,23.1,9.6,32.3,19.1  s13.4,20.7,12.7,33.7c0,15-1.8,30-5.4,45s-7.7,29.7-12.2,44c-5.9,19.5-12.1,38.9-18.6,58.2c-6.5,19.2-13,38.6-19.5,58.2  c-1.3,3.9-2.8,8-4.4,12.2c-1.6,4.2-3.4,8.3-5.4,12.2c-7.8,23.5-16,46.8-24.4,69.9s-16.9,46.1-25.4,68.9c-3.3,8.5-6.7,17.1-10.3,25.9  c-3.6,8.8-7,17.4-10.3,25.9c-2.6,7.2-5.2,14.5-7.8,22s-5.2,15.2-7.8,23v4.4l-1,5.4c5.2,1.3,9.8,1.6,13.7,1s7.5-1.6,10.8-2.9  c13.7-3.9,27.2-8,40.6-12.2s26.9-8.3,40.6-12.2c16.9-4.6,34.2-9.1,51.8-13.7c17.6-4.6,34.9-9.1,51.8-13.7l23.5-5.9l23.5-4.9  c7.8-2,15-2.4,21.5-1.5c6.5,1,13,3.4,19.5,7.3c5.9,3.3,8.6,7.8,8.3,13.7c-0.3,5.9-3.7,10.1-10.3,12.7c-1.3,0.7-2.8,1.1-4.4,1.5  s-3.1,0.8-4.4,1.5c-20.9,3.9-41.5,8-62.1,12.2c-20.5,4.2-40.9,8.6-61.1,13.2c-11.1,2.6-21.8,5.7-32.3,9.3  c-10.4,3.6-20.9,7-31.3,10.3c-17.6,5.2-35,10.3-52.3,15.2s-35,8.6-53.3,11.2c-6.5,0.7-13.2,1.1-20,1.5s-13.5-1.5-20-5.4  c-5.9-3.9-9.6-7.8-11.2-11.7s-1.5-9.1,0.5-15.6c7.2-18.9,20-52.5,38.6-100.7c18.6-48.2,30.5-79.2,35.7-92.9  c6.5-18.2,12.9-36.8,19.1-55.7c6.2-18.9,12.5-37.8,19.1-56.7c6.5-20.9,13.4-41.7,20.5-62.6c7.2-20.9,14-41.7,20.5-62.6  c2-7.2,3.6-14.8,4.9-23c1.3-8.1,2.6-16.1,3.9-23.9c0.7-3.3,0.8-6.8,0.5-10.8C380.2,269.6,378.7,265.3,376.1,260.8z M459.2,1012.5  c-18.9-0.7-36.5-4.1-52.8-10.3c-16.3-6.2-32.3-13.2-47.9-21c-2-1.3-3.7-2.4-5.4-3.4c-1.6-1-3.1-2.1-4.4-3.4c-3.3-2-5.4-4.4-6.4-7.3  c-1-2.9-0.8-5.7,0.5-8.3c0.7-2,1.6-3.6,2.9-4.9c1.3-1.3,2.6-2.3,3.9-2.9c1.3-0.7,2.9-1.3,4.9-2s3.6-1,4.9-1c2.6,0,5.4,0.2,8.3,0.5  c2.9,0.3,5.7,1.1,8.3,2.4c3.9,1.3,8,2.8,12.2,4.4c4.2,1.6,8.3,3.4,12.2,5.4c15,7.2,30.5,11.4,46.4,12.7c16,1.3,32.1,0.3,48.4-2.9  c28-5.9,52.8-15.3,74.3-28.3c21.5-13,41.4-28.3,59.6-45.9c3.3-3.3,6-6.8,8.3-10.8c2.3-3.9,5.1-7.5,8.3-10.8  c6.5-9.1,15.6-13.5,27.4-13.2c11.7,0.3,20.5,5.1,26.4,14.2c2,2.6,2.9,5.4,2.9,8.3c0,2.9-1.6,5.7-4.9,8.3  c-5.2,5.2-10.1,10.8-14.7,16.6c-4.6,5.9-9.4,11.4-14.7,16.6c-3.3,3.3-6.7,6.4-10.3,9.3c-3.6,2.9-7.3,6-11.2,9.3  c-11.1,7.8-22.6,15.8-34.7,23.9c-12.1,8.1-24.6,14.8-37.6,20c-13.7,5.9-27.7,10.9-42,15.2c-14.3,4.2-29,6.7-44,7.3  c-5.2,0-10.1,0.2-14.7,0.5S464.4,1011.8,459.2,1012.5z M747.6,205.1c14.3,0.7,28.3,2.6,42,5.9c13.7,3.3,26.4,8.8,38.1,16.6  c9.1,5.9,15.8,13,20,21.5c4.2,8.5,7.7,16.9,10.3,25.4c2.6,9.1,4.7,18.4,6.4,27.9c1.6,9.4,3.4,19.1,5.4,28.8  c1.3,6.5-0.3,11.6-4.9,15.2s-10.4,4.7-17.6,3.4c-9.8-2.6-17.6-5.7-23.5-9.3c-5.9-3.6-9.1-11.2-9.8-23c0-8.5-1-17.1-2.9-25.9  c-2-8.8-4.2-17.4-6.8-25.9c-3.3-10.4-8.6-17.9-16.1-22.5c-7.5-4.6-17.4-6.8-29.8-6.8c-11.7,0-23.1,1.5-34.2,4.4s-21.8,7.3-32.3,13.2  c-5.9,2.6-11.4,6-16.6,10.3c-5.2,4.2-10.1,8.6-14.7,13.2c-5.2,5.2-10.8,8.3-16.6,9.3c-5.9,1-12.1-0.5-18.6-4.4  c-5.2-2.6-8.3-5.9-9.3-9.8c-1-3.9,0.5-7.5,4.4-10.8c5.2-5.9,10.9-11.2,17.1-16.1c6.2-4.9,12.5-9.9,19.1-15.2  c13-9.1,27.2-15.5,42.5-19.1S730.6,205.7,747.6,205.1z"></path></svg>